<svg xmlns="http://www.w3.org/2000/svg" viewBox="0 0 256 256"><rect width="256" height="256" rx="48" fill="#202126"/><circle cx="128" cy="116" r="76" fill="#f97316" opacity=".9"/><circle cx="128" cy="91" r="41" fill="#ffb184"/><path d="M91 76c8-28 27-42 48-42 19 0 33 10 39 30-14-8-26-10-39-9-18 1-32 9-48 21Z" fill="#312228"/><path d="M153 42c21 10 27 31 16 54" fill="none" stroke="#312228" stroke-width="17" stroke-linecap="round"/><circle cx="113" cy="92" r="5" fill="#262126"/><circle cx="143" cy="92" r="5" fill="#262126"/><path d="M114 109c8 7 20 7 28 0" fill="none" stroke="#3b2520" stroke-width="5" stroke-linecap="round"/><path d="M70 222c3-53 25-82 58-82 32 0 54 29 58 82Z" fill="#17191e"/><path d="m103 144 25 22 25-22" fill="#f97316"/><path d="M59 190h72v37H59Z" fill="#2d3036"/><path d="M69 190h52" stroke="#ff7a18" stroke-width="5"/><path d="M155 167h29l9 12-16 19-29-5Z" fill="#33363d"/><rect x="164" y="171" width="17" height="5" rx="2" fill="#f97316"/><path d="M185 199c7 0 12 6 12 12v16h-34v-16c0-6 5-12 12-12Z" fill="#f4eee7"/></svg>